<?xml version="1.0" standalone="no"?>
<!DOCTYPE svg PUBLIC "-//W3C//DTD SVG 20010904//EN"
 "http://www.w3.org/TR/2001/REC-SVG-20010904/DTD/svg10.dtd">
<svg version="1.0" xmlns="http://www.w3.org/2000/svg"
 width="340.000000pt" height="182.000000pt" viewBox="0 0 340.000000 182.000000"
 preserveAspectRatio="xMidYMid meet">

<g transform="translate(0.000000,182.000000) scale(0.100000,-0.100000)"
fill="#000000" stroke="none">
<path d="M1754 1528 l-19 -23 23 19 c21 18 27 26 19 26 -2 0 -12 -10 -23 -22z"/>
<path d="M1640 1489 c-7 -13 -24 -37 -38 -54 -23 -27 -24 -35 -18 -99 4 -41
17 -93 32 -125 27 -60 25 -66 -32 -86 -36 -12 -39 -12 -64 15 -36 39 -93 55
-140 41 -62 -18 -65 -33 -17 -70 23 -17 52 -34 65 -38 22 -5 124 8 178 23 20
5 21 3 16 -45 -5 -54 1 -61 30 -34 15 13 18 13 18 2 0 -8 -7 -25 -16 -37 -20
-29 -20 -101 0 -141 17 -32 36 -41 36 -18 0 8 9 22 20 32 34 31 44 83 31 161
-7 38 -19 80 -27 92 -18 28 -11 41 11 22 14 -12 20 -7 16 14 -1 5 11 6 26 3
28 -5 28 -5 6 10 -27 18 -29 29 -6 37 11 4 27 -4 48 -24 42 -41 100 -50 155
-25 36 16 53 35 31 35 -4 0 -28 16 -52 35 -27 22 -55 35 -73 35 l-29 0 24 26
c21 22 24 35 24 105 0 43 -2 79 -5 79 -3 0 -22 -11 -41 -24 -59 -40 -82 -110
-59 -172 13 -33 11 -35 -40 -39 -22 -1 -43 -5 -46 -8 -3 -3 -13 -3 -21 0 -8 3
-19 0 -23 -7 -6 -10 -13 -2 -24 25 -19 45 -20 55 -3 55 6 0 22 15 35 33 27 41
29 108 3 156 l-18 35 -13 -25z m30 -424 c0 -12 -9 -30 -20 -40 -20 -18 -20
-17 -20 17 0 39 3 45 25 45 9 0 15 -9 15 -22z"/>
<path d="M1521 1450 c0 -8 4 -24 9 -35 l9 -20 0 20 c0 11 -4 27 -9 35 -9 13
-10 13 -9 0z"/>
<path d="M1753 1435 c-12 -14 -21 -25 -20 -26 10 -4 38 -6 34 -2 -3 3 -2 16 3
29 12 30 10 30 -17 -1z"/>
<path d="M1485 1420 c10 -11 20 -20 23 -20 3 0 -3 9 -13 20 -10 11 -20 20 -23
20 -3 0 3 -9 13 -20z"/>
<path d="M1374 1351 c29 -54 72 -81 131 -81 44 0 56 4 65 20 10 18 6 26 -23
55 -34 34 -38 35 -111 35 l-77 0 15 -29z"/>
<path d="M1998 1363 c12 -2 30 -2 40 0 9 3 -1 5 -23 4 -22 0 -30 -2 -17 -4z"/>
<path d="M1943 1303 c-18 -2 -33 -8 -33 -13 0 -17 15 -16 50 1 19 10 31 18 25
17 -5 -1 -25 -3 -42 -5z"/>
<path d="M1687 1282 c-10 -10 -17 -23 -17 -28 0 -4 7 2 16 14 8 12 20 20 25
17 5 -4 9 -1 9 4 0 17 -15 13 -33 -7z"/>
<path d="M1376 1245 c10 -8 26 -14 34 -14 9 0 4 6 -10 14 -33 19 -49 19 -24 0z"/>
<path d="M1588 1192 c8 -5 13 -12 13 -16 -3 -20 0 -26 10 -20 8 5 8 9 -1 14
-6 4 -11 11 -10 16 1 5 -4 10 -12 12 -11 3 -11 2 0 -6z"/>
<path d="M1768 1103 c12 -2 30 -2 40 0 9 3 -1 5 -23 4 -22 0 -30 -2 -17 -4z"/>
<path d="M1958 1093 c12 -2 30 -2 40 0 9 3 -1 5 -23 4 -22 0 -30 -2 -17 -4z"/>
<path d="M1917 1083 c-9 -14 6 -28 32 -31 14 -1 23 -1 20 0 -2 2 -14 11 -26
21 -11 10 -23 14 -26 10z"/>
<path d="M1490 1043 c-42 -35 -51 -62 -43 -133 5 -56 7 -59 27 -48 66 33 95
98 76 168 -6 22 -15 40 -20 40 -4 0 -23 -12 -40 -27z"/>
<path d="M1368 1033 c7 -3 16 -2 19 1 4 3 -2 6 -13 5 -11 0 -14 -3 -6 -6z"/>
<path d="M1788 1034 c-36 -11 -31 -50 12 -89 18 -16 34 -19 92 -17 39 1 74 4
76 7 8 7 -29 55 -59 78 -26 19 -90 30 -121 21z"/>
<path d="M1380 1010 c-13 -9 -13 -10 0 -10 8 0 22 5 30 10 13 9 13 10 0 10 -8
0 -22 -5 -30 -10z"/>
<path d="M1267 949 c7 -7 15 -10 18 -7 3 3 -2 9 -12 12 -14 6 -15 5 -6 -5z"/>
<path d="M1559 889 l-24 -20 30 18 c22 13 27 14 19 3 -6 -8 -14 -24 -18 -35
-4 -14 1 -10 18 10 36 45 18 62 -25 24z"/>
<path d="M1790 907 c0 -6 31 -67 34 -67 1 0 0 14 -2 31 -4 24 -2 30 8 24 9 -5
11 -4 6 3 -6 11 -46 18 -46 9z"/>
<path d="M1611 854 c0 -11 3 -14 6 -6 3 7 2 16 -1 19 -3 4 -6 -2 -5 -13z"/>
<path d="M1532 760 c0 -14 2 -19 5 -12 2 6 2 18 0 25 -3 6 -5 1 -5 -13z"/>
<path d="M1852 764 c10 -10 20 -16 22 -13 3 3 -5 11 -17 18 -21 13 -21 12 -5
-5z"/>
<path d="M2150 636 c0 -9 7 -16 15 -16 10 0 15 -10 15 -34 l0 -34 -43 5 c-56
7 -79 -17 -85 -91 -4 -48 -1 -57 21 -80 28 -28 56 -33 88 -16 13 7 19 7 19 0
0 -5 14 -10 30 -10 30 0 43 24 18 32 -9 3 -13 39 -13 129 l0 124 -32 3 c-25 2
-33 -1 -33 -12z m18 -118 c7 -7 12 -34 12 -60 0 -42 -3 -50 -26 -60 -39 -18
-58 0 -62 56 -2 27 2 54 9 62 14 17 51 18 67 2z"/>
<path d="M1129 612 c-25 -21 -30 -71 -10 -96 7 -8 34 -22 61 -31 54 -18 73
-35 68 -62 -8 -43 -101 -42 -112 2 -9 35 -36 33 -36 -4 0 -40 23 -55 86 -55
57 -1 85 16 98 60 9 30 -27 71 -74 85 -54 16 -75 41 -60 68 17 32 77 29 92 -4
6 -14 17 -25 25 -25 22 0 15 47 -9 64 -31 22 -100 20 -129 -2z"/>
<path d="M1357 553 c-13 -13 -7 -53 8 -53 8 0 15 7 15 15 0 25 38 18 43 -7 4
-23 4 -23 6 1 1 20 3 21 16 11 27 -23 18 -40 -23 -40 -53 0 -82 -23 -82 -66 0
-45 35 -64 83 -46 21 8 33 9 35 2 5 -14 49 -13 58 2 4 6 2 14 -4 16 -8 2 -12
27 -12 66 0 86 -16 106 -84 106 -29 0 -56 -3 -59 -7z m103 -118 c0 -20 -21
-30 -31 -14 -6 10 -9 8 -9 -8 0 -14 -6 -23 -15 -23 -18 0 -30 24 -22 44 7 19
77 19 77 1z"/>
<path d="M1560 550 c0 -6 7 -13 15 -16 22 -9 22 -144 0 -144 -8 0 -15 -7 -15
-16 0 -12 10 -14 47 -12 26 2 48 9 51 16 2 6 -4 12 -13 12 -13 0 -15 11 -13
68 3 66 4 67 32 70 37 5 46 -10 46 -80 0 -45 -3 -58 -15 -58 -8 0 -15 -7 -15
-15 0 -11 12 -15 50 -15 38 0 50 4 50 15 0 8 -7 15 -15 15 -12 0 -15 14 -15
63 0 80 -17 107 -69 107 -20 0 -42 -5 -49 -12 -9 -9 -12 -9 -12 0 0 7 -13 12
-30 12 -16 0 -30 -5 -30 -10z"/>
<path d="M1842 548 c-17 -17 -15 -48 3 -48 7 0 18 7 23 16 14 25 66 15 70 -13
3 -20 -1 -23 -33 -23 -40 0 -85 -36 -85 -68 0 -42 57 -65 103 -41 16 9 22 9
25 0 5 -16 52 -14 52 3 0 8 -4 18 -10 21 -5 3 -10 35 -10 70 0 44 -5 68 -16
79 -19 19 -104 22 -122 4z m98 -118 c0 -23 -40 -46 -64 -37 -19 8 -21 43 -3
50 6 3 24 6 40 6 21 1 27 -4 27 -19z"/>
</g>
</svg>
