<svg width="294" height="160" viewBox="0 0 294 160" fill="none" xmlns="http://www.w3.org/2000/svg">
<path fill-rule="evenodd" clip-rule="evenodd" d="M76.1104 18.1823C85.5991 12.9549 95.6316 8.78461 106.028 5.74609L111.427 25.9496C102.787 28.4867 94.4478 31.956 86.5562 36.2963L76.1104 18.1823Z" fill="#8CC63F"/>
<path fill-rule="evenodd" clip-rule="evenodd" d="M45.1689 40.9907C52.9904 33.4857 61.6063 26.8571 70.8637 21.2227L81.3082 39.3295C73.6206 44.022 66.4599 49.5294 59.9499 55.7564L45.1689 40.9907Z" fill="#8CC63F"/>
<path fill-rule="evenodd" clip-rule="evenodd" d="M21.165 70.9814C26.7853 61.7047 33.4103 53.0767 40.9199 45.2539L55.6535 60.011C49.4472 66.5384 43.9511 73.7074 39.2576 81.3971L21.165 70.9814Z" fill="#009245"/>
<path fill-rule="evenodd" clip-rule="evenodd" d="M5.75098 106.137C8.76217 95.7221 12.9264 85.6766 18.1663 76.1875L36.2215 86.6521C31.8965 94.5564 28.4343 102.904 25.8948 111.55L5.75098 106.137Z" fill="#009245"/>
<path fill-rule="evenodd" clip-rule="evenodd" d="M0 144.134C0.195772 133.306 1.59487 122.534 4.17145 112.016L24.3526 117.422C22.2206 126.172 21.0462 135.129 20.8501 144.134H0Z" fill="#009245"/>
<path fill-rule="evenodd" clip-rule="evenodd" d="M289.828 112.016C292.402 122.534 293.801 133.306 294 144.134H273.149C272.951 135.128 271.776 126.17 269.643 117.419L289.828 112.016Z" fill="#E01B1B"/>
<path fill-rule="evenodd" clip-rule="evenodd" d="M275.83 76.1875C281.077 85.6872 285.243 95.7462 288.25 106.176L268.11 111.582C265.559 102.929 262.096 94.5722 257.779 86.6521L275.83 76.1875Z" fill="#E01B1B"/>
<path fill-rule="evenodd" clip-rule="evenodd" d="M253.081 45.2539C260.588 53.0658 267.199 61.6939 272.79 70.9771L254.737 81.3928C250.045 73.7045 244.551 66.5369 238.346 60.011L253.081 45.2539Z" fill="#E01B1B"/>
<path fill-rule="evenodd" clip-rule="evenodd" d="M223.131 21.2227C232.391 26.837 240.997 33.4673 248.79 40.9907L234.049 55.7564C227.537 49.5309 220.375 44.025 212.687 39.3338L223.131 21.2227Z" fill="#F7941D"/>
<path fill-rule="evenodd" clip-rule="evenodd" d="M187.973 5.74609C198.369 8.78303 208.402 12.9514 217.891 18.1766L207.484 36.2834C199.579 31.9426 191.227 28.4734 182.574 25.9366L187.973 5.74609Z" fill="#F7941D"/>
<path fill-rule="evenodd" clip-rule="evenodd" d="M143.985 20.9062C134.979 21.112 126.021 22.2763 117.261 24.3796L111.862 4.2163C122.385 1.64387 133.156 0.230049 143.985 0V20.9062Z" fill="#FEBC37"/>
<path fill-rule="evenodd" clip-rule="evenodd" d="M150.015 0C160.844 0.229958 171.616 1.64623 182.137 4.22349L176.739 24.3867C167.983 22.2607 159.022 21.0937 150.015 20.9062V0Z" fill="#FEBC37"/>
<path d="M147.02 160C149.554 160 152.03 159.248 154.137 157.839C156.244 156.43 157.885 154.427 158.855 152.083C159.825 149.74 160.078 147.162 159.584 144.674C159.09 142.186 157.87 139.901 156.078 138.108C154.287 136.314 152.004 135.093 149.519 134.598C147.034 134.103 144.459 134.357 142.118 135.328C139.777 136.298 137.776 137.942 136.369 140.051C134.961 142.16 134.21 144.639 134.21 147.176C134.216 150.575 135.568 153.833 137.969 156.237C140.37 158.64 143.625 159.994 147.02 160Z" fill="#231F20"/>
<path d="M139.645 143.653L229.062 112L143.933 153.483L141.789 148.568L139.645 143.653Z" fill="#231F20"/>
<path fill-rule="evenodd" clip-rule="evenodd" d="M147.02 153.251C148.215 153.247 149.382 152.889 150.374 152.222C151.366 151.555 152.138 150.609 152.593 149.503C153.049 148.397 153.167 147.18 152.933 146.007C152.699 144.834 152.123 143.757 151.278 142.911C150.433 142.065 149.357 141.488 148.185 141.254C147.013 141.02 145.798 141.138 144.694 141.594C143.589 142.05 142.644 142.823 141.977 143.816C141.311 144.809 140.953 145.977 140.949 147.174C140.948 147.972 141.104 148.763 141.409 149.501C141.714 150.239 142.161 150.909 142.725 151.474C143.289 152.038 143.958 152.486 144.695 152.791C145.432 153.096 146.222 153.252 147.02 153.251Z" fill="white"/>
</svg>
