<svg width="294" height="160" viewBox="0 0 294 160" fill="none" xmlns="http://www.w3.org/2000/svg">
<path fill-rule="evenodd" clip-rule="evenodd" d="M76.1094 18.1823C85.5981 12.9549 95.6307 8.78461 106.027 5.74609L111.426 25.9496C102.786 28.4867 94.4468 31.956 86.5552 36.2963L76.1094 18.1823Z" fill="#8CC63F"/>
<path fill-rule="evenodd" clip-rule="evenodd" d="M45.1719 40.9907C52.9934 33.4857 61.6092 26.8571 70.8667 21.2227L81.3111 39.3295C73.6235 44.022 66.4628 49.5294 59.9528 55.7564L45.1719 40.9907Z" fill="#8CC63F"/>
<path fill-rule="evenodd" clip-rule="evenodd" d="M21.1641 70.9814C26.7844 61.7047 33.4093 53.0767 40.9189 45.2539L55.6525 60.011C49.4462 66.5384 43.9501 73.7074 39.2566 81.3971L21.1641 70.9814Z" fill="#009245"/>
<path fill-rule="evenodd" clip-rule="evenodd" d="M5.75 106.137C8.76119 95.7221 12.9255 85.6766 18.1653 76.1875L36.2206 86.6521C31.8955 94.5564 28.4333 102.904 25.8938 111.55L5.75 106.137Z" fill="#009245"/>
<path fill-rule="evenodd" clip-rule="evenodd" d="M0 144.134C0.195772 133.306 1.59487 122.534 4.17145 112.016L24.3526 117.422C22.2206 126.172 21.0462 135.129 20.8501 144.134H0Z" fill="#009245"/>
<path fill-rule="evenodd" clip-rule="evenodd" d="M289.826 112.016C292.4 122.534 293.799 133.306 293.998 144.134H273.147C272.949 135.128 271.774 126.17 269.641 117.419L289.826 112.016Z" fill="#D6DFE9"/>
<path fill-rule="evenodd" clip-rule="evenodd" d="M275.832 76.1875C281.079 85.6872 285.245 95.7462 288.252 106.176L268.112 111.582C265.561 102.929 262.097 94.5722 257.781 86.6521L275.832 76.1875Z" fill="#D6DFE9"/>
<path fill-rule="evenodd" clip-rule="evenodd" d="M253.079 45.2539C260.586 53.0658 267.197 61.6939 272.788 70.9771L254.735 81.3928C250.043 73.7045 244.549 66.5369 238.344 60.011L253.079 45.2539Z" fill="#D6DFE9"/>
<path fill-rule="evenodd" clip-rule="evenodd" d="M223.132 21.2227C232.392 26.837 240.998 33.4673 248.791 40.9907L234.05 55.7564C227.538 49.5309 220.376 44.025 212.688 39.3338L223.132 21.2227Z" fill="#D6DFE9"/>
<path fill-rule="evenodd" clip-rule="evenodd" d="M187.977 5.74609C198.373 8.78303 208.406 12.9514 217.895 18.1766L207.488 36.2834C199.583 31.9426 191.231 28.4734 182.578 25.9366L187.977 5.74609Z" fill="#D6DFE9"/>
<path fill-rule="evenodd" clip-rule="evenodd" d="M143.982 20.9062C134.976 21.112 126.018 22.2763 117.258 24.3796L111.859 4.2163C122.382 1.64387 133.153 0.230049 143.982 0V20.9062Z" fill="#D6DFE9"/>
<path fill-rule="evenodd" clip-rule="evenodd" d="M150.016 0C160.845 0.229958 171.617 1.64623 182.138 4.22349L176.74 24.3867C167.984 22.2607 159.023 21.0937 150.016 20.9062V0Z" fill="#D6DFE9"/>
<path d="M147.021 160C149.555 160 152.031 159.248 154.138 157.839C156.245 156.43 157.886 154.427 158.856 152.083C159.826 149.74 160.079 147.162 159.585 144.674C159.091 142.186 157.871 139.901 156.079 138.108C154.288 136.314 152.005 135.093 149.52 134.598C147.035 134.103 144.46 134.357 142.119 135.328C139.778 136.298 137.777 137.942 136.37 140.051C134.962 142.16 134.211 144.639 134.211 147.176C134.217 150.575 135.569 153.833 137.97 156.237C140.371 158.64 143.626 159.994 147.021 160Z" fill="#231F20"/>
<path d="M140.392 148.45L107 59.668L150.136 143.971L145.264 146.211L140.392 148.45Z" fill="#231F20"/>
<path fill-rule="evenodd" clip-rule="evenodd" d="M147.024 153.251C148.219 153.247 149.386 152.889 150.378 152.222C151.369 151.555 152.142 150.609 152.597 149.503C153.053 148.397 153.171 147.18 152.937 146.007C152.703 144.834 152.127 143.757 151.282 142.911C150.437 142.065 149.361 141.488 148.189 141.254C147.017 141.02 145.802 141.138 144.697 141.594C143.593 142.05 142.648 142.823 141.981 143.816C141.315 144.809 140.957 145.977 140.953 147.174C140.952 147.972 141.108 148.763 141.413 149.501C141.718 150.239 142.165 150.909 142.729 151.474C143.293 152.038 143.962 152.486 144.699 152.791C145.436 153.096 146.226 153.252 147.024 153.251Z" fill="white"/>
</svg>
